<svg width="102" height="102" viewBox="0 0 102 102" fill="none" xmlns="http://www.w3.org/2000/svg">
<g id="uiw:safety">
<path id="Vector" d="M14.4942 19.7115V57.6249C14.4942 78.2646 30.8397 94.9926 51 94.9926C71.1603 94.9926 87.5058 78.2646 87.5058 57.6249V19.7319L50.7807 7.3746L14.4942 19.7115ZM50.7705 0L94.35 14.6574V57.6249C94.35 82.1304 74.9394 102 51 102C27.0606 102 7.64999 82.1304 7.64999 57.6249V14.6574L50.7705 0ZM73.3074 33.0735C72.9745 32.7677 72.5834 32.5321 72.1575 32.3807C71.7316 32.2293 71.2795 32.1653 70.8283 32.1924C70.3771 32.2196 69.9359 32.3373 69.5312 32.5386C69.1265 32.7399 68.7664 33.0207 68.4726 33.3642L46.461 58.7061L32.2422 42.9726C31.9416 42.6358 31.5763 42.3629 31.168 42.1702C30.7598 41.9775 30.317 41.8688 29.8659 41.8508C29.4148 41.8327 28.9647 41.9055 28.5423 42.065C28.12 42.2244 27.734 42.4671 27.4074 42.7788C26.7387 43.4179 26.3451 44.2923 26.3098 45.2166C26.2746 46.141 26.6006 47.0427 27.2187 47.7309L43.9977 66.2949C44.3173 66.6542 44.7101 66.9408 45.1498 67.1355C45.5894 67.3302 46.0657 67.4285 46.5465 67.4236C47.0274 67.4188 47.5016 67.311 47.9372 67.1075C48.3729 66.904 48.7599 66.6095 49.0722 66.2439L73.5879 38.0205C74.1929 37.321 74.502 36.4135 74.4496 35.4902C74.3972 34.5668 73.9876 33.7001 73.3074 33.0735Z" fill="#72A4A5"/>
</g>
</svg>
