<svg width="102" height="102" viewBox="0 0 102 102" fill="none" xmlns="http://www.w3.org/2000/svg">
<g id="streamline:interface-edit-glue-glue-company-office-supplies-work">
<path id="Vector" d="M36.4286 40.0715C31.5979 40.0715 26.965 41.9905 23.5491 45.4063C20.1333 48.8221 18.2143 53.455 18.2143 58.2857V91.0715C18.2143 93.0037 18.9819 94.8569 20.3482 96.2232C21.7146 97.5896 23.5677 98.3572 25.5 98.3572H76.5C78.4323 98.3572 80.2854 97.5896 81.6518 96.2232C83.0181 94.8569 83.7857 93.0037 83.7857 91.0715V58.2857C83.7857 55.8938 83.3146 53.5253 82.3992 51.3154C81.4839 49.1056 80.1422 47.0976 78.4509 45.4063C76.7595 43.7149 74.7516 42.3733 72.5417 41.4579C70.3319 40.5426 67.9634 40.0715 65.5714 40.0715M36.4286 40.0715H65.5714M36.4286 40.0715L47.3572 3.64288H54.6429L65.5714 40.0715M36.4286 80.1429H65.5714M18.2143 61.9286H83.7857" stroke="#72A4A5" stroke-linecap="round" stroke-linejoin="round"/>
</g>
</svg>
