<svg width="102" height="102" viewBox="0 0 102 102" fill="none" xmlns="http://www.w3.org/2000/svg">
<path d="M89.25 11.1562C81.1657 11.1562 72.0534 15.6347 62.1562 24.4641C54.7971 31.0343 48.454 38.7401 44.2266 44.358C40.8578 43.143 37.246 42.7567 33.6965 43.2317C30.1469 43.7068 26.7638 45.0293 23.8331 47.0874C20.9024 49.1455 18.5101 51.8789 16.8585 55.0565C15.2068 58.2341 14.3443 61.7625 14.3438 65.3438C14.3438 78.5798 5.87297 84.4688 5.49047 84.7397C5.20729 84.93 4.99265 85.2061 4.87812 85.5275C4.76359 85.8489 4.75522 86.1986 4.85424 86.5251C4.95326 86.8515 5.15444 87.1376 5.42819 87.3413C5.70195 87.5449 6.03382 87.6553 6.375 87.6562H36.6562C40.2375 87.6557 43.7659 86.7932 46.9435 85.1415C50.1211 83.4899 52.8545 81.0976 54.9126 78.1669C56.9707 75.2362 58.2932 71.8531 58.7683 68.3035C59.2433 64.754 58.857 61.1422 57.642 57.7734C63.2639 53.538 70.9657 47.1949 77.5359 39.8438C86.3653 29.9466 90.8438 20.8343 90.8438 12.75C90.8438 12.3273 90.6758 11.9219 90.377 11.623C90.0781 11.3242 89.6727 11.1562 89.25 11.1562ZM36.6562 84.4688H10.4988C13.511 81.1577 17.5312 74.9381 17.5312 65.3438C17.5312 61.5612 18.6529 57.8636 20.7544 54.7185C22.8559 51.5734 25.8428 49.1221 29.3374 47.6746C32.8321 46.227 36.6775 45.8483 40.3874 46.5862C44.0972 47.3242 47.505 49.1457 50.1797 51.8203C52.8543 54.495 54.6758 57.9028 55.4138 61.6126C56.1517 65.3225 55.773 69.1679 54.3254 72.6626C52.8779 76.1572 50.4266 79.1441 47.2815 81.2456C44.1364 83.3471 40.4388 84.4688 36.6562 84.4688ZM47.2228 45.6968C48.8684 43.5293 50.9362 40.9155 53.3149 38.1663C57.601 40.7948 61.2052 44.399 63.8337 48.6851C61.0685 51.0757 58.4707 53.1316 56.3032 54.7772C54.2256 50.9305 51.0695 47.7744 47.2228 45.6968ZM66.2562 46.5495C63.4908 42.1983 59.8017 38.5092 55.4505 35.7438C64.1484 26.0698 76.2052 15.3916 87.5845 14.4155C86.6084 25.7948 75.9302 37.8516 66.2562 46.5495Z" fill="#72A4A5"/>
</svg>
