<svg width="102" height="102" viewBox="0 0 102 102" fill="none" xmlns="http://www.w3.org/2000/svg">
<path d="M38.6682 66.7766C45.3071 73.4155 61.4529 68.0336 74.7307 54.7557C88.0086 41.4779 93.3904 25.3323 86.7514 18.6934" stroke="#72A4A5" stroke-width="4" stroke-linecap="round" stroke-linejoin="round"/>
<path d="M58.201 14.185L61.2062 17.1902" stroke="#72A4A5" stroke-width="4" stroke-linecap="round" stroke-linejoin="round"/>
<path d="M47.684 24.7031L50.6891 27.7083" stroke="#72A4A5" stroke-width="4" stroke-linecap="round" stroke-linejoin="round"/>
<path d="M38.6671 36.7247L41.6723 39.7298" stroke="#72A4A5" stroke-width="4" stroke-linecap="round" stroke-linejoin="round"/>
<path d="M35.6622 51.7501L38.6673 54.7553" stroke="#72A4A5" stroke-width="4" stroke-linecap="round" stroke-linejoin="round"/>
<path d="M74.7299 9.67767L77.7351 12.6829" stroke="#72A4A5" stroke-width="4" stroke-linecap="round" stroke-linejoin="round"/>
<path d="M71.7249 27.7092L77.7355 33.7195" stroke="#72A4A5" stroke-width="4" stroke-linecap="round" stroke-linejoin="round"/>
<path d="M61.2079 38.2272L67.2182 44.2376" stroke="#72A4A5" stroke-width="4" stroke-linecap="round" stroke-linejoin="round"/>
<path d="M49.1863 47.2428L55.1967 53.2534" stroke="#72A4A5" stroke-width="4" stroke-linecap="round" stroke-linejoin="round"/>
<path d="M38.6672 75.7923C41.1568 73.3027 41.1568 69.2663 38.6672 66.7767C36.1776 64.2871 32.1412 64.2871 29.6516 66.7767L17.6308 78.7975C15.1412 81.2871 15.1412 85.3235 17.6308 87.8131C20.1204 90.3027 24.1568 90.3027 26.6464 87.8131L38.6672 75.7923Z" stroke="#72A4A5" stroke-width="4" stroke-linecap="round" stroke-linejoin="round"/>
</svg>
