<svg width="102" height="102" viewBox="0 0 102 102" fill="none" xmlns="http://www.w3.org/2000/svg">
<g id="la:tools">
<path id="Vector" d="M16.7344 8.76562L14.9398 10.4582L10.4582 14.9398L8.76562 16.7344L10.0597 18.8254L16.7344 29.9816L17.6301 31.5754H26.9981L39.7481 44.2266C28.356 55.6697 13.8624 70.2111 13.3524 70.7243C8.35763 75.7159 8.34806 83.895 13.4481 88.6539C18.4301 93.5691 26.5487 93.6966 31.2821 88.6539L31.3778 88.5519L51 68.8309L70.7243 88.6507L71.0207 88.8516C76.0251 93.5691 83.9842 93.6328 88.6539 88.6507V88.5551H88.7496C93.6328 83.5603 93.6838 75.4417 88.6539 70.7211L88.5519 70.6254L71.9196 54.0887C83.1109 53.0432 91.8765 43.5923 92.0391 32.1746H92.1379C92.1506 32.1109 92.1379 32.0376 92.1379 31.9738V31.875C92.4502 28.1903 91.6534 24.6649 89.7473 21.6144L87.5606 18.2325L72.7164 33.0735L68.2348 28.3911L83.3754 13.2504L78.9926 11.4591C76.1969 10.2291 73.1792 9.58374 70.125 9.5625C57.8722 9.5625 47.8125 19.6222 47.8125 31.875C47.8125 33.2074 48.0994 34.3644 48.3097 35.5597C46.9168 36.9559 45.8713 38.1002 44.2266 39.7449L31.5754 27.0938V17.6301L29.9816 16.7344L18.8254 10.0597L16.7344 8.76562ZM70.125 15.9375C70.5713 15.9375 70.8836 16.1989 71.3203 16.2371L59.2684 28.2891L61.4582 30.5809L70.4246 39.8438L72.6144 42.1356L85.2656 29.4844C85.3294 30.2175 85.8521 30.753 85.7629 31.5754V31.875C85.7629 40.6534 78.6038 47.8125 69.8254 47.8125C68.6556 47.8125 67.2371 47.5384 65.6434 47.2132L63.9476 46.9168L62.7523 48.1121L26.7973 84.1691H26.6953V84.2711C24.4322 86.7478 20.4701 86.8084 17.8309 84.1691V84.0703H17.7289C15.2522 81.8072 15.1916 77.8451 17.8309 75.2059C19.0389 73.9946 42.432 50.4007 53.8879 38.9481L55.1852 37.6539L54.6847 35.8594C54.3822 34.5519 54.2156 33.2167 54.1875 31.875C54.1875 23.0966 61.3466 15.9375 70.125 15.9375ZM17.7289 16.7344L25.2004 21.318V24.5055L24.5055 25.2004H21.318L16.7344 17.7321L17.7289 16.7344ZM64.3461 55.4816L84.1723 75.2059V75.3047H84.2679C86.7478 77.5678 86.8084 81.5299 84.1723 84.1691H84.0703V84.2711C81.8072 86.7478 77.8451 86.8084 75.2059 84.1691L55.4816 64.3493L64.3461 55.4816Z" fill="#72A4A5"/>
</g>
</svg>
